<svg width="140" height="39" viewBox="0 0 140 39" fill="none" xmlns="http://www.w3.org/2000/svg">
<path d="M21.7115 0L17.1382 12.5649L5.94988 36.9517L0 20.5566C5.94063 19.8729 9.36828 18.2746 21.7115 0Z" fill="#004CFF"/>
<path d="M21.7115 0L17.1382 12.5649L10.0335 38.438L25.1299 29.7032C21.0186 25.3609 19.4202 21.9332 21.7115 0Z" fill="#004CFF"/>
<path d="M32.9809 18.2662V21.7109H32.5744C32.5744 21.611 32.553 21.4969 32.5102 21.3686C32.4674 21.2402 32.4103 21.1689 32.339 21.1546H32.1892C31.7471 21.1546 31.2978 21.283 30.8413 21.5397C30.3992 21.7822 30.0283 22.1103 29.7288 22.5239C29.4435 22.9233 29.3009 23.3512 29.3009 23.8076V28.1081C29.3009 28.1794 29.3508 28.2365 29.4506 28.2792C29.5647 28.322 29.6717 28.3434 29.7716 28.3434V28.7499H26.1772V28.3434C26.277 28.3434 26.3768 28.322 26.4767 28.2792C26.5908 28.2365 26.6479 28.1794 26.6479 28.1081V19.55C26.6479 19.4786 26.5908 19.4216 26.4767 19.3788C26.3768 19.336 26.277 19.3146 26.1772 19.3146V18.9081H29.3009V19.8281C29.686 19.4715 30.1495 19.1862 30.6916 18.9723C31.2336 18.7583 31.7756 18.6514 32.3176 18.6514H32.3604C32.4317 18.6514 32.4816 18.6086 32.5102 18.523C32.553 18.4374 32.5744 18.3518 32.5744 18.2662H32.9809Z" fill="#004CFF"/>
<path d="M45.8638 19.3146C45.764 19.3146 45.657 19.336 45.5429 19.3788C45.4431 19.4216 45.3931 19.4786 45.3931 19.55V28.1081C45.3931 28.1794 45.4431 28.2365 45.5429 28.2792C45.657 28.322 45.764 28.3434 45.8638 28.3434V28.7499H42.6973V27.5732C41.7987 28.5431 40.6648 29.0281 39.2955 29.0281C38.2542 29.0281 37.3342 28.8213 36.5355 28.4076C35.751 27.9797 35.1377 27.3735 34.6955 26.589C34.2676 25.8045 34.0536 24.8917 34.0536 23.8504C34.0536 22.8377 34.289 21.9391 34.7597 21.1546C35.2446 20.3558 35.8865 19.7425 36.6853 19.3146C37.484 18.8724 38.3541 18.6514 39.2955 18.6514C40.6648 18.6514 41.7987 19.1791 42.6973 20.2346V18.9081H45.8638V19.3146ZM39.6164 26.7602C40.2012 26.7602 40.7218 26.6318 41.1783 26.3751C41.649 26.104 42.0127 25.7546 42.2694 25.3267C42.5262 24.8845 42.6545 24.4138 42.6545 23.9146C42.6545 23.0588 42.3693 22.3527 41.7987 21.7965C41.2425 21.2402 40.515 20.962 39.6164 20.962C38.7463 20.962 38.026 21.2331 37.4555 21.7751C36.8992 22.3171 36.6211 23.0089 36.6211 23.8504C36.6211 24.7348 36.9063 25.4408 37.4769 25.9685C38.0617 26.4963 38.7749 26.7602 39.6164 26.7602Z" fill="#004CFF"/>
<path d="M54.311 18.6514C55.3237 18.6514 56.2294 18.8724 57.0282 19.3146C57.8269 19.7425 58.4474 20.3558 58.8896 21.1546C59.346 21.9391 59.5742 22.8448 59.5742 23.8718C59.5742 24.913 59.346 25.8259 58.8896 26.6104C58.4474 27.3949 57.8198 28.0011 57.0068 28.429C56.208 28.8569 55.288 29.0709 54.2468 29.0709C53.0629 29.0709 52.0003 28.6715 51.0589 27.8727V34.3341C51.0589 34.4054 51.1088 34.4625 51.2087 34.5053C51.3228 34.5481 51.4297 34.5695 51.5296 34.5695V34.976H47.9138V34.5695C48.0136 34.5695 48.1135 34.5481 48.2133 34.5053C48.3274 34.4625 48.3845 34.4054 48.3845 34.3341V19.55C48.3845 19.4786 48.3274 19.4216 48.2133 19.3788C48.1135 19.336 48.0136 19.3146 47.9138 19.3146V18.9081H51.0589V19.8067C52.0288 19.0365 53.1128 18.6514 54.311 18.6514ZM54.0328 26.7816C54.8744 26.7816 55.5804 26.5248 56.151 26.0113C56.7215 25.4979 57.0068 24.7989 57.0068 23.9146C57.0068 23.0588 56.7286 22.3599 56.1724 21.8179C55.6161 21.2616 54.9029 20.9834 54.0328 20.9834C53.1342 20.9834 52.3997 21.2616 51.8291 21.8179C51.2728 22.3599 50.9947 23.0659 50.9947 23.936C50.9947 24.421 51.1231 24.8845 51.3798 25.3267C51.6508 25.7689 52.0145 26.1254 52.471 26.3965C52.9417 26.6532 53.4623 26.7816 54.0328 26.7816Z" fill="#004CFF"/>
<path d="M63.4657 17.1109C63.0092 17.1109 62.617 16.954 62.2889 16.6402C61.9751 16.3264 61.8182 15.9342 61.8182 15.4635C61.8182 15.0213 61.9751 14.6433 62.2889 14.3295C62.617 14.0014 63.0092 13.8374 63.4657 13.8374C63.9221 13.8374 64.3072 14.0014 64.621 14.3295C64.9348 14.6433 65.0917 15.0213 65.0917 15.4635C65.0917 15.9342 64.9348 16.3264 64.621 16.6402C64.3072 16.954 63.9221 17.1109 63.4657 17.1109ZM62.075 19.55C62.075 19.4786 62.0179 19.4216 61.9038 19.3788C61.804 19.336 61.7041 19.3146 61.6043 19.3146V18.9081H65.2843V19.3146C65.1844 19.3146 65.0774 19.336 64.9633 19.3788C64.8635 19.4216 64.8136 19.4786 64.8136 19.55V28.1081C64.8136 28.1794 64.8635 28.2365 64.9633 28.2792C65.0774 28.322 65.1844 28.3434 65.2843 28.3434V28.7499H61.6043V28.3434C61.7041 28.3434 61.804 28.322 61.9038 28.2792C62.0179 28.2365 62.075 28.1794 62.075 28.1081V19.55Z" fill="#004CFF"/>
<path d="M78.4422 28.1081C78.4422 28.1794 78.4921 28.2365 78.592 28.2792C78.7061 28.322 78.8131 28.3434 78.9129 28.3434V28.7499H75.8534V28.0011C74.9976 28.7 73.9777 29.0495 72.7938 29.0495C71.7383 29.0495 70.7969 28.8355 69.9697 28.4076C69.1424 27.9797 68.4934 27.3735 68.0227 26.589C67.552 25.8045 67.3167 24.8988 67.3167 23.8718C67.3167 22.8306 67.552 21.9106 68.0227 21.1118C68.5077 20.2988 69.1638 19.6712 69.9911 19.229C70.8326 18.7726 71.7669 18.5444 72.7938 18.5444C73.9777 18.5444 74.9976 18.8796 75.8534 19.55V13.3453C75.8534 13.274 75.8035 13.2169 75.7036 13.1742C75.6038 13.1314 75.5039 13.11 75.4041 13.11V12.7035H78.8915V13.11C78.7917 13.11 78.6918 13.1314 78.592 13.1742C78.4921 13.2169 78.4422 13.274 78.4422 13.3453V28.1081ZM72.9222 26.7602C73.4785 26.7602 73.9848 26.6318 74.4413 26.3751C74.912 26.1183 75.2757 25.776 75.5324 25.3481C75.8035 24.9059 75.9389 24.4424 75.9389 23.9574C75.9389 23.0873 75.6537 22.3741 75.0831 21.8179C74.5269 21.2473 73.8066 20.962 72.9222 20.962C72.0379 20.962 71.3104 21.2402 70.7399 21.7965C70.1836 22.3385 69.9055 23.0445 69.9055 23.9146C69.9055 24.7847 70.1908 25.4765 70.7613 25.9899C71.3461 26.5034 72.0664 26.7602 72.9222 26.7602Z" fill="#004CFF"/>
<path d="M88.9891 28.9639C87.4629 28.9639 86.0579 28.6073 84.7742 27.8941C83.4905 27.1667 82.4778 26.1682 81.7361 24.8988C80.9944 23.6151 80.6235 22.1887 80.6235 20.6197C80.6235 18.9652 80.9944 17.5031 81.7361 16.2337C82.4778 14.9642 83.4762 13.9872 84.7314 13.3025C85.9866 12.6036 87.363 12.2542 88.8607 12.2542C90.3013 12.2542 91.5137 12.5109 92.4979 13.0244C93.4964 13.5236 94.4378 14.2297 95.3221 15.1425C95.3506 15.1711 95.3934 15.1853 95.4505 15.1853C95.536 15.1853 95.6858 15.1211 95.8998 14.9928L96.1565 15.3137L93.204 17.6458L92.9472 17.3248C93.0328 17.2678 93.097 17.1965 93.1398 17.1109C93.1968 17.011 93.1968 16.9397 93.1398 16.8969C92.5407 16.3121 91.9131 15.87 91.257 15.5704C90.6151 15.2566 89.8306 15.0997 88.9035 15.0997C87.9336 15.0997 87.0421 15.3422 86.2291 15.8272C85.4161 16.2979 84.7742 16.954 84.3035 17.7955C83.8328 18.6371 83.5975 19.5785 83.5975 20.6197C83.5975 21.6182 83.8471 22.531 84.3463 23.3583C84.8455 24.1713 85.5088 24.8132 86.3361 25.2839C87.1634 25.7546 88.0477 25.9899 88.9891 25.9899C89.8734 25.9899 90.6294 25.8402 91.257 25.5406C91.8846 25.2268 92.4765 24.7633 93.0328 24.1499L93.0756 24.0644C93.0756 23.993 93.0399 23.9146 92.9686 23.829C92.9116 23.7292 92.8474 23.6579 92.7761 23.6151L93.0542 23.3155L96.2421 25.9899L95.9854 26.3109C95.8998 26.2396 95.7928 26.1754 95.6644 26.1183C95.536 26.0613 95.4505 26.0613 95.4077 26.1183C94.5091 27.0882 93.5677 27.8085 92.5835 28.2792C91.5993 28.7357 90.4012 28.9639 88.9891 28.9639Z" fill="#004CFF"/>
<path d="M97.8178 13.3453C97.8178 13.274 97.7608 13.2169 97.6467 13.1742C97.5468 13.1314 97.4398 13.11 97.3257 13.11V12.7035H101.091V13.11C100.977 13.11 100.863 13.1314 100.749 13.1742C100.649 13.2169 100.599 13.274 100.599 13.3453V28.1081C100.599 28.1794 100.649 28.2365 100.749 28.2792C100.863 28.322 100.977 28.3434 101.091 28.3434V28.7499H97.3257V28.3434C97.4398 28.3434 97.5468 28.322 97.6467 28.2792C97.7608 28.2365 97.8178 28.1794 97.8178 28.1081V13.3453Z" fill="#004CFF"/>
<path d="M105.212 17.1109C104.755 17.1109 104.363 16.954 104.035 16.6402C103.721 16.3264 103.564 15.9342 103.564 15.4635C103.564 15.0213 103.721 14.6433 104.035 14.3295C104.363 14.0014 104.755 13.8374 105.212 13.8374C105.668 13.8374 106.053 14.0014 106.367 14.3295C106.681 14.6433 106.838 15.0213 106.838 15.4635C106.838 15.9342 106.681 16.3264 106.367 16.6402C106.053 16.954 105.668 17.1109 105.212 17.1109ZM103.821 19.55C103.821 19.4786 103.764 19.4216 103.65 19.3788C103.55 19.336 103.45 19.3146 103.35 19.3146V18.9081H107.03V19.3146C106.93 19.3146 106.823 19.336 106.709 19.3788C106.609 19.4216 106.559 19.4786 106.559 19.55V28.1081C106.559 28.1794 106.609 28.2365 106.709 28.2792C106.823 28.322 106.93 28.3434 107.03 28.3434V28.7499H103.35V28.3434C103.45 28.3434 103.55 28.322 103.65 28.2792C103.764 28.2365 103.821 28.1794 103.821 28.1081V19.55Z" fill="#004CFF"/>
<path d="M114.283 18.4588C115.381 18.4588 116.33 18.7013 117.129 19.1862C117.927 19.6569 118.534 20.2988 118.947 21.1118C119.361 21.9248 119.568 22.8234 119.568 23.8076C119.568 24.1072 119.546 24.4067 119.503 24.7062H111.673C111.73 25.3909 112.029 25.9258 112.571 26.3109C113.113 26.696 113.762 26.8885 114.518 26.8885C115.032 26.8885 115.46 26.8172 115.802 26.6746C116.159 26.532 116.472 26.318 116.743 26.0327C116.772 25.9757 116.786 25.94 116.786 25.9258C116.786 25.8687 116.765 25.8116 116.722 25.7546C116.679 25.6833 116.636 25.6334 116.594 25.6048L116.85 25.2839L119.225 27.1453L118.99 27.4662C118.776 27.3378 118.626 27.3236 118.541 27.4234C117.542 28.6216 116.201 29.2206 114.518 29.2206C113.434 29.2206 112.479 28.9853 111.651 28.5146C110.824 28.0296 110.182 27.3878 109.726 26.589C109.284 25.776 109.063 24.8774 109.063 23.8932C109.063 22.852 109.284 21.9177 109.726 21.0904C110.168 20.2631 110.781 19.6213 111.566 19.1648C112.365 18.6941 113.27 18.4588 114.283 18.4588ZM117 22.7165C116.943 22.1317 116.644 21.6396 116.102 21.2402C115.574 20.8265 114.975 20.6197 114.304 20.6197C113.634 20.6197 113.056 20.8265 112.571 21.2402C112.086 21.6396 111.794 22.1317 111.694 22.7165H117Z" fill="#004CFF"/>
<path d="M131.799 28.1081C131.799 28.1794 131.848 28.2365 131.948 28.2792C132.062 28.322 132.177 28.3434 132.291 28.3434V28.7499H128.525V28.3434C128.639 28.3434 128.746 28.322 128.846 28.2792C128.96 28.2365 129.017 28.1794 129.017 28.1081V23.6579C129.017 22.9304 128.839 22.3099 128.482 21.7965C128.126 21.2687 127.591 21.0048 126.878 21.0048C126.15 21.0048 125.558 21.2473 125.102 21.7323C124.66 22.2172 124.439 22.9162 124.439 23.829V28.1081C124.439 28.1794 124.489 28.2365 124.588 28.2792C124.702 28.322 124.817 28.3434 124.931 28.3434V28.7499H121.187V28.3434C121.301 28.3434 121.408 28.322 121.507 28.2792C121.622 28.2365 121.679 28.1794 121.679 28.1081V19.55C121.679 19.4786 121.622 19.4216 121.507 19.3788C121.408 19.336 121.308 19.3146 121.208 19.3146V18.9081H124.439V19.7853C124.809 19.443 125.244 19.1791 125.744 18.9937C126.257 18.794 126.778 18.6941 127.306 18.6941C128.218 18.6941 129.01 18.8867 129.68 19.2718C130.365 19.6569 130.886 20.1776 131.242 20.8337C131.613 21.4755 131.799 22.1958 131.799 22.9946V28.1081Z" fill="#004CFF"/>
<path d="M140 18.4802V21.7323H139.593C139.593 21.6324 139.572 21.5397 139.529 21.4541C139.487 21.3543 139.429 21.3044 139.358 21.3044H137.967V28.1081C137.967 28.1794 138.017 28.2365 138.117 28.2792C138.217 28.322 138.317 28.3434 138.417 28.3434V28.7499H134.929V28.3434C135.029 28.3434 135.129 28.322 135.229 28.2792C135.329 28.2365 135.379 28.1794 135.379 28.1081V21.3044H134.352C134.28 21.3044 134.223 21.3543 134.18 21.4541C134.138 21.5397 134.116 21.6324 134.116 21.7323H133.71V18.4802H134.116C134.116 18.58 134.138 18.6799 134.18 18.7797C134.223 18.8653 134.28 18.9081 134.352 18.9081H135.379V16.4048C135.379 16.3335 135.329 16.2765 135.229 16.2337C135.129 16.1909 135.029 16.1695 134.929 16.1695V15.763H138.417V16.1695C138.317 16.1695 138.217 16.1909 138.117 16.2337C138.017 16.2765 137.967 16.3335 137.967 16.4048V18.9081H139.358C139.429 18.9081 139.487 18.8653 139.529 18.7797C139.572 18.6799 139.593 18.58 139.593 18.4802H140Z" fill="#004CFF"/>
</svg>
