<?xml version="1.0" standalone="no"?>
<!DOCTYPE svg PUBLIC "-//W3C//DTD SVG 20010904//EN"
 "http://www.w3.org/TR/2001/REC-SVG-20010904/DTD/svg10.dtd">
<svg version="1.0" xmlns="http://www.w3.org/2000/svg"
 width="210.000000pt" height="58.000000pt" viewBox="0 0 210.000000 58.000000"
 preserveAspectRatio="xMidYMid meet">
<metadata>
Created by potrace 1.16, written by Peter Selinger 2001-2019
</metadata>
<g transform="translate(0.000000,58.000000) scale(0.100000,-0.100000)"
fill="#000000" stroke="none">
<path d="M0 425 l0 -155 28 6 c66 16 136 76 215 187 83 116 77 118 70 -18 -7
-152 1 -224 33 -270 13 -20 24 -37 24 -39 0 -3 -151 -91 -197 -115 -18 -9 -22
-9 -18 1 15 46 85 309 85 320 0 7 -7 0 -15 -17 -34 -72 -98 -213 -112 -247 -8
-21 -18 -38 -22 -38 -3 0 -19 37 -35 83 -56 158 -55 158 -56 10 l0 -133 1050
0 1050 0 0 290 0 290 -1050 0 -1050 0 0 -155z m1387 -46 c47 -22 51 -30 28
-49 -11 -10 -18 -9 -30 4 -10 9 -33 16 -55 16 -30 0 -43 -6 -59 -26 -25 -32
-26 -57 -4 -95 11 -19 28 -31 49 -35 34 -6 74 9 74 28 0 6 9 3 20 -7 11 -10
20 -21 20 -24 0 -16 -63 -41 -103 -41 -38 0 -52 6 -81 34 -32 30 -36 39 -36
83 0 58 25 97 74 119 42 18 53 17 103 -7z m-215 -109 l0 -115 -62 -3 c-77 -4
-100 12 -100 69 0 53 31 81 85 77 l40 -3 -2 48 c-2 43 0 48 18 45 19 -3 21
-10 21 -118z m-544 18 c9 -9 12 -9 12 0 0 7 9 12 20 12 18 0 20 -7 20 -74 l0
-73 -65 -1 c-53 -1 -70 3 -85 18 -30 30 -26 83 6 109 30 23 74 27 92 9z m236
-9 c19 -15 26 -30 26 -54 0 -49 -33 -77 -85 -73 l-40 3 -3 -48 c-3 -39 -6 -47
-23 -47 -18 0 -19 8 -19 119 l0 118 59 1 c46 1 66 -4 85 -19z m901 -4 c14 -13
25 -33 25 -45 0 -18 -6 -20 -61 -20 -44 0 -59 -3 -56 -12 2 -8 22 -13 50 -13
53 0 64 -14 25 -33 -35 -16 -73 -6 -98 25 -61 78 45 169 115 98z"/>
</g>
</svg>
