<svg width="210" height="58" viewBox="0 0 210 58" fill="none" xmlns="http://www.w3.org/2000/svg">
<path d="M32.4729 0L25.6329 18.7928L8.89896 55.267L0 30.7456C8.88514 29.7231 14.0117 27.3325 32.4729 0Z" fill="#F2F6FF"/>
<path d="M32.4729 0L25.6329 18.7928L15.0066 57.49L37.5857 44.4257C31.4365 37.9311 29.0459 32.8045 32.4729 0Z" fill="#F2F6FF"/>
<path d="M49.328 27.32V32.472H48.72C48.72 32.3227 48.688 32.152 48.624 31.96C48.56 31.768 48.4747 31.6613 48.368 31.64H48.144C47.4827 31.64 46.8107 31.832 46.128 32.216C45.4667 32.5787 44.912 33.0693 44.464 33.688C44.0373 34.2853 43.824 34.9253 43.824 35.608V42.04C43.824 42.1467 43.8987 42.232 44.048 42.296C44.2187 42.36 44.3787 42.392 44.528 42.392V43H39.152V42.392C39.3013 42.392 39.4507 42.36 39.6 42.296C39.7707 42.232 39.856 42.1467 39.856 42.04V29.24C39.856 29.1333 39.7707 29.048 39.6 28.984C39.4507 28.92 39.3013 28.888 39.152 28.888V28.28H43.824V29.656C44.4 29.1227 45.0933 28.696 45.904 28.376C46.7147 28.056 47.5253 27.896 48.336 27.896H48.4C48.5067 27.896 48.5813 27.832 48.624 27.704C48.688 27.576 48.72 27.448 48.72 27.32H49.328Z" fill="#F2F6FF"/>
<path d="M68.5965 28.888C68.4472 28.888 68.2872 28.92 68.1165 28.984C67.9672 29.048 67.8925 29.1333 67.8925 29.24V42.04C67.8925 42.1467 67.9672 42.232 68.1165 42.296C68.2872 42.36 68.4472 42.392 68.5965 42.392V43H63.8605V41.24C62.5165 42.6907 60.8205 43.416 58.7725 43.416C57.2152 43.416 55.8392 43.1067 54.6445 42.488C53.4712 41.848 52.5538 40.9413 51.8925 39.768C51.2525 38.5947 50.9325 37.2293 50.9325 35.672C50.9325 34.1573 51.2845 32.8133 51.9885 31.64C52.7138 30.4453 53.6738 29.528 54.8685 28.888C56.0632 28.2267 57.3645 27.896 58.7725 27.896C60.8205 27.896 62.5165 28.6853 63.8605 30.264V28.28H68.5965V28.888ZM59.2525 40.024C60.1272 40.024 60.9058 39.832 61.5885 39.448C62.2925 39.0427 62.8365 38.52 63.2205 37.88C63.6045 37.2187 63.7965 36.5147 63.7965 35.768C63.7965 34.488 63.3698 33.432 62.5165 32.6C61.6845 31.768 60.5965 31.352 59.2525 31.352C57.9512 31.352 56.8738 31.7573 56.0205 32.568C55.1885 33.3787 54.7725 34.4133 54.7725 35.672C54.7725 36.9947 55.1992 38.0507 56.0525 38.84C56.9272 39.6293 57.9938 40.024 59.2525 40.024Z" fill="#F2F6FF"/>
<path d="M81.2305 27.896C82.7452 27.896 84.0998 28.2267 85.2945 28.888C86.4892 29.528 87.4172 30.4453 88.0785 31.64C88.7612 32.8133 89.1025 34.168 89.1025 35.704C89.1025 37.2613 88.7612 38.6267 88.0785 39.8C87.4172 40.9733 86.4785 41.88 85.2625 42.52C84.0678 43.16 82.6918 43.48 81.1345 43.48C79.3638 43.48 77.7745 42.8827 76.3665 41.688V51.352C76.3665 51.4587 76.4412 51.544 76.5905 51.608C76.7612 51.672 76.9212 51.704 77.0705 51.704V52.312H71.6625V51.704C71.8118 51.704 71.9612 51.672 72.1105 51.608C72.2812 51.544 72.3665 51.4587 72.3665 51.352V29.24C72.3665 29.1333 72.2812 29.048 72.1105 28.984C71.9612 28.92 71.8118 28.888 71.6625 28.888V28.28H76.3665V29.624C77.8172 28.472 79.4385 27.896 81.2305 27.896ZM80.8145 40.056C82.0732 40.056 83.1292 39.672 83.9825 38.904C84.8358 38.136 85.2625 37.0907 85.2625 35.768C85.2625 34.488 84.8465 33.4427 84.0145 32.632C83.1825 31.8 82.1158 31.384 80.8145 31.384C79.4705 31.384 78.3718 31.8 77.5185 32.632C76.6865 33.4427 76.2705 34.4987 76.2705 35.8C76.2705 36.5253 76.4625 37.2187 76.8465 37.88C77.2518 38.5413 77.7958 39.0747 78.4785 39.48C79.1825 39.864 79.9612 40.056 80.8145 40.056Z" fill="#F2F6FF"/>
<path d="M94.9228 25.592C94.2401 25.592 93.6534 25.3573 93.1628 24.888C92.6934 24.4187 92.4587 23.832 92.4587 23.128C92.4587 22.4667 92.6934 21.9013 93.1628 21.432C93.6534 20.9413 94.2401 20.696 94.9228 20.696C95.6054 20.696 96.1814 20.9413 96.6507 21.432C97.1201 21.9013 97.3548 22.4667 97.3548 23.128C97.3548 23.832 97.1201 24.4187 96.6507 24.888C96.1814 25.3573 95.6054 25.592 94.9228 25.592ZM92.8428 29.24C92.8428 29.1333 92.7574 29.048 92.5867 28.984C92.4374 28.92 92.2881 28.888 92.1387 28.888V28.28H97.6428V28.888C97.4934 28.888 97.3334 28.92 97.1628 28.984C97.0134 29.048 96.9388 29.1333 96.9388 29.24V42.04C96.9388 42.1467 97.0134 42.232 97.1628 42.296C97.3334 42.36 97.4934 42.392 97.6428 42.392V43H92.1387V42.392C92.2881 42.392 92.4374 42.36 92.5867 42.296C92.7574 42.232 92.8428 42.1467 92.8428 42.04V29.24Z" fill="#F2F6FF"/>
<path d="M117.323 42.04C117.323 42.1467 117.397 42.232 117.547 42.296C117.717 42.36 117.877 42.392 118.027 42.392V43H113.451V41.88C112.171 42.9253 110.645 43.448 108.874 43.448C107.296 43.448 105.888 43.128 104.65 42.488C103.413 41.848 102.443 40.9413 101.739 39.768C101.035 38.5947 100.683 37.24 100.683 35.704C100.683 34.1467 101.035 32.7707 101.739 31.576C102.464 30.36 103.445 29.4213 104.683 28.76C105.941 28.0773 107.338 27.736 108.874 27.736C110.645 27.736 112.171 28.2373 113.451 29.24V19.96C113.451 19.8533 113.376 19.768 113.227 19.704C113.077 19.64 112.928 19.608 112.779 19.608V19H117.994V19.608C117.845 19.608 117.696 19.64 117.547 19.704C117.397 19.768 117.323 19.8533 117.323 19.96V42.04ZM109.066 40.024C109.898 40.024 110.656 39.832 111.339 39.448C112.043 39.064 112.587 38.552 112.971 37.912C113.376 37.2507 113.578 36.5573 113.578 35.832C113.578 34.5307 113.152 33.464 112.299 32.632C111.466 31.7787 110.389 31.352 109.066 31.352C107.744 31.352 106.656 31.768 105.802 32.6C104.97 33.4107 104.554 34.4667 104.554 35.768C104.554 37.0693 104.981 38.104 105.835 38.872C106.709 39.64 107.786 40.024 109.066 40.024Z" fill="#F2F6FF"/>
<path d="M133.097 43.32C130.814 43.32 128.713 42.7867 126.793 41.72C124.873 40.632 123.358 39.1387 122.249 37.24C121.14 35.32 120.585 33.1867 120.585 30.84C120.585 28.3653 121.14 26.1787 122.249 24.28C123.358 22.3813 124.852 20.92 126.729 19.896C128.606 18.8507 130.665 18.328 132.905 18.328C135.06 18.328 136.873 18.712 138.345 19.48C139.838 20.2267 141.246 21.2827 142.569 22.648C142.612 22.6907 142.676 22.712 142.761 22.712C142.889 22.712 143.113 22.616 143.433 22.424L143.817 22.904L139.401 26.392L139.017 25.912C139.145 25.8267 139.241 25.72 139.305 25.592C139.39 25.4427 139.39 25.336 139.305 25.272C138.409 24.3973 137.47 23.736 136.489 23.288C135.529 22.8187 134.356 22.584 132.969 22.584C131.518 22.584 130.185 22.9467 128.969 23.672C127.753 24.376 126.793 25.3573 126.089 26.616C125.385 27.8747 125.033 29.2827 125.033 30.84C125.033 32.3333 125.406 33.6987 126.153 34.936C126.9 36.152 127.892 37.112 129.129 37.816C130.366 38.52 131.689 38.872 133.097 38.872C134.42 38.872 135.55 38.648 136.489 38.2C137.428 37.7307 138.313 37.0373 139.145 36.12L139.209 35.992C139.209 35.8853 139.156 35.768 139.049 35.64C138.964 35.4907 138.868 35.384 138.761 35.32L139.177 34.872L143.945 38.872L143.561 39.352C143.433 39.2453 143.273 39.1493 143.081 39.064C142.889 38.9787 142.761 38.9787 142.697 39.064C141.353 40.5147 139.945 41.592 138.473 42.296C137.001 42.9787 135.209 43.32 133.097 43.32Z" fill="#F2F6FF"/>
<path d="M146.302 19.96C146.302 19.8533 146.216 19.768 146.046 19.704C145.896 19.64 145.736 19.608 145.566 19.608V19H151.198V19.608C151.027 19.608 150.856 19.64 150.686 19.704C150.536 19.768 150.462 19.8533 150.462 19.96V42.04C150.462 42.1467 150.536 42.232 150.686 42.296C150.856 42.36 151.027 42.392 151.198 42.392V43H145.566V42.392C145.736 42.392 145.896 42.36 146.046 42.296C146.216 42.232 146.302 42.1467 146.302 42.04V19.96Z" fill="#F2F6FF"/>
<path d="M157.36 25.592C156.678 25.592 156.091 25.3573 155.6 24.888C155.131 24.4187 154.896 23.832 154.896 23.128C154.896 22.4667 155.131 21.9013 155.6 21.432C156.091 20.9413 156.678 20.696 157.36 20.696C158.043 20.696 158.619 20.9413 159.088 21.432C159.558 21.9013 159.792 22.4667 159.792 23.128C159.792 23.832 159.558 24.4187 159.088 24.888C158.619 25.3573 158.043 25.592 157.36 25.592ZM155.28 29.24C155.28 29.1333 155.195 29.048 155.024 28.984C154.875 28.92 154.726 28.888 154.576 28.888V28.28H160.08V28.888C159.931 28.888 159.771 28.92 159.6 28.984C159.451 29.048 159.376 29.1333 159.376 29.24V42.04C159.376 42.1467 159.451 42.232 159.6 42.296C159.771 42.36 159.931 42.392 160.08 42.392V43H154.576V42.392C154.726 42.392 154.875 42.36 155.024 42.296C155.195 42.232 155.28 42.1467 155.28 42.04V29.24Z" fill="#F2F6FF"/>
<path d="M170.928 27.608C172.571 27.608 173.989 27.9707 175.184 28.696C176.379 29.4 177.285 30.36 177.904 31.576C178.523 32.792 178.832 34.136 178.832 35.608C178.832 36.056 178.8 36.504 178.736 36.952H167.024C167.109 37.976 167.557 38.776 168.368 39.352C169.179 39.928 170.149 40.216 171.28 40.216C172.048 40.216 172.688 40.1093 173.2 39.896C173.733 39.6827 174.203 39.3627 174.608 38.936C174.651 38.8507 174.672 38.7973 174.672 38.776C174.672 38.6907 174.64 38.6053 174.576 38.52C174.512 38.4133 174.448 38.3387 174.384 38.296L174.768 37.816L178.32 40.6L177.968 41.08C177.648 40.888 177.424 40.8667 177.296 41.016C175.803 42.808 173.797 43.704 171.28 43.704C169.659 43.704 168.229 43.352 166.992 42.648C165.755 41.9227 164.795 40.9627 164.112 39.768C163.451 38.552 163.12 37.208 163.12 35.736C163.12 34.1787 163.451 32.7813 164.112 31.544C164.773 30.3067 165.691 29.3467 166.864 28.664C168.059 27.96 169.413 27.608 170.928 27.608ZM174.992 33.976C174.907 33.1013 174.459 32.3653 173.648 31.768C172.859 31.1493 171.963 30.84 170.96 30.84C169.957 30.84 169.093 31.1493 168.368 31.768C167.643 32.3653 167.205 33.1013 167.056 33.976H174.992Z" fill="#F2F6FF"/>
<path d="M197.125 42.04C197.125 42.1467 197.2 42.232 197.349 42.296C197.52 42.36 197.691 42.392 197.861 42.392V43H192.229V42.392C192.4 42.392 192.56 42.36 192.709 42.296C192.88 42.232 192.965 42.1467 192.965 42.04V35.384C192.965 34.296 192.699 33.368 192.165 32.6C191.632 31.8107 190.832 31.416 189.765 31.416C188.677 31.416 187.792 31.7787 187.109 32.504C186.448 33.2293 186.117 34.2747 186.117 35.64V42.04C186.117 42.1467 186.192 42.232 186.341 42.296C186.512 42.36 186.683 42.392 186.853 42.392V43H181.253V42.392C181.424 42.392 181.584 42.36 181.733 42.296C181.904 42.232 181.989 42.1467 181.989 42.04V29.24C181.989 29.1333 181.904 29.048 181.733 28.984C181.584 28.92 181.435 28.888 181.285 28.888V28.28H186.117V29.592C186.672 29.08 187.323 28.6853 188.069 28.408C188.837 28.1093 189.616 27.96 190.405 27.96C191.771 27.96 192.955 28.248 193.957 28.824C194.981 29.4 195.76 30.1787 196.293 31.16C196.848 32.12 197.125 33.1973 197.125 34.392V42.04Z" fill="#F2F6FF"/>
<path d="M209.392 27.64V32.504H208.784C208.784 32.3547 208.752 32.216 208.688 32.088C208.624 31.9387 208.538 31.864 208.432 31.864H206.352V42.04C206.352 42.1467 206.426 42.232 206.576 42.296C206.725 42.36 206.874 42.392 207.024 42.392V43H201.808V42.392C201.957 42.392 202.106 42.36 202.256 42.296C202.405 42.232 202.48 42.1467 202.48 42.04V31.864H200.944C200.837 31.864 200.752 31.9387 200.688 32.088C200.624 32.216 200.592 32.3547 200.592 32.504H199.984V27.64H200.592C200.592 27.7893 200.624 27.9387 200.688 28.088C200.752 28.216 200.837 28.28 200.944 28.28H202.48V24.536C202.48 24.4293 202.405 24.344 202.256 24.28C202.106 24.216 201.957 24.184 201.808 24.184V23.576H207.024V24.184C206.874 24.184 206.725 24.216 206.576 24.28C206.426 24.344 206.352 24.4293 206.352 24.536V28.28H208.432C208.538 28.28 208.624 28.216 208.688 28.088C208.752 27.9387 208.784 27.7893 208.784 27.64H209.392Z" fill="#F2F6FF"/>
</svg>
