<?xml version="1.0" encoding="UTF-8"?>
<!DOCTYPE svg PUBLIC "-//W3C//DTD SVG 1.1//EN" "http://www.w3.org/Graphics/SVG/1.1/DTD/svg11.dtd">
<svg xmlns="http://www.w3.org/2000/svg" version="1.1" width="70px" height="124px" style="shape-rendering:geometricPrecision; text-rendering:geometricPrecision; image-rendering:optimizeQuality; fill-rule:evenodd; clip-rule:evenodd" xmlns:xlink="http://www.w3.org/1999/xlink">
<g><path style="opacity:0.722" fill="#8196cd" d="M 57.5,14.5 C 58.0545,10.9878 57.3878,7.98785 55.5,5.5C 56.1534,4.19322 56.8201,2.85989 57.5,1.5C 58.1667,0.166667 58.8333,0.166667 59.5,1.5C 58.8864,5.96691 58.2197,10.3002 57.5,14.5 Z"/></g>
<g><path style="opacity:1" fill="#5d71db" d="M 53.5,9.5 C 53.4077,11.8477 52.4077,13.5144 50.5,14.5C 50.7497,12.326 51.7497,10.6594 53.5,9.5 Z"/></g>
<g><path style="opacity:1" fill="#154be8" d="M 55.5,5.5 C 57.3878,7.98785 58.0545,10.9878 57.5,14.5C 57.5,15.5 57.5,16.5 57.5,17.5C 56.6829,19.9686 56.1829,22.6353 56,25.5C 55.5001,37.1619 55.3335,48.8286 55.5,60.5C 55.5,62.8333 55.5,65.1667 55.5,67.5C 54.8333,52.9944 54.1667,38.3278 53.5,23.5C 52.5,24.1667 51.5,24.8333 50.5,25.5C 50.1667,24.8333 49.8333,24.1667 49.5,23.5C 50.5428,20.6166 52.2094,18.1166 54.5,16C 52.2902,17.1049 49.9568,18.2716 47.5,19.5C 47.7497,17.326 48.7497,15.6594 50.5,14.5C 52.4077,13.5144 53.4077,11.8477 53.5,9.5C 53.7329,7.93819 54.3995,6.60486 55.5,5.5 Z"/></g>
<g><path style="opacity:1" fill="#044cfb" d="M 55.5,67.5 C 56.0464,71.8283 56.7131,76.1616 57.5,80.5C 59.1307,82.0588 59.964,84.0588 60,86.5C 60.6708,87.2524 61.5041,87.5858 62.5,87.5C 62.427,89.0269 63.0937,90.0269 64.5,90.5C 64.6602,92.1992 64.4935,93.8659 64,95.5C 63.586,95.0426 63.086,94.7093 62.5,94.5C 61.5481,96.0453 61.2148,97.712 61.5,99.5C 58.8127,99.3359 56.146,99.5026 53.5,100C 54.6682,101.406 54.3348,102.572 52.5,103.5C 50.2338,104.314 47.9005,104.814 45.5,105C 46.731,106.183 46.731,107.349 45.5,108.5C 43.9291,109.309 42.2624,109.643 40.5,109.5C 40.6463,111.942 39.813,112.609 38,111.5C 37.5172,112.448 37.3505,113.448 37.5,114.5C 35.326,114.92 33.326,114.92 31.5,114.5C 30.5934,111.579 30.2601,108.579 30.5,105.5C 30.2322,103.901 30.5655,102.568 31.5,101.5C 32.4959,101.586 33.3292,101.252 34,100.5C 36.1318,92.6399 37.2984,84.6399 37.5,76.5C 38.9311,76.1193 39.7645,75.1193 40,73.5C 40.4645,69.1523 40.9645,64.819 41.5,60.5C 41.5,60.1667 41.5,59.8333 41.5,59.5C 42.9696,56.5608 44.4696,53.5608 46,50.5C 46.8075,46.9733 46.6408,43.6399 45.5,40.5C 44.9045,37.8875 44.0712,37.8875 43,40.5C 42.3333,39.8333 41.6667,39.1667 41,38.5C 38.3696,49.0913 36.5363,48.7579 35.5,37.5C 39.4459,37.5123 41.1126,35.5123 40.5,31.5C 41.8333,31.5 43.1667,31.5 44.5,31.5C 45.0265,27.3377 46.0265,23.3377 47.5,19.5C 49.9568,18.2716 52.2902,17.1049 54.5,16C 52.2094,18.1166 50.5428,20.6166 49.5,23.5C 49.8333,24.1667 50.1667,24.8333 50.5,25.5C 51.5,24.8333 52.5,24.1667 53.5,23.5C 54.1667,38.3278 54.8333,52.9944 55.5,67.5 Z"/></g>
<g><path style="opacity:1" fill="#3856e3" d="M 47.5,19.5 C 46.0265,23.3377 45.0265,27.3377 44.5,31.5C 43.1667,31.5 41.8333,31.5 40.5,31.5C 41.1126,35.5123 39.4459,37.5123 35.5,37.5C 39.141,31.2051 43.141,25.2051 47.5,19.5 Z"/></g>
<g><path style="opacity:0.412" fill="#93a9eb" d="M 57.5,17.5 C 56.7025,31.8186 56.3692,46.152 56.5,60.5C 56.1667,60.5 55.8333,60.5 55.5,60.5C 55.3335,48.8286 55.5001,37.1619 56,25.5C 56.1829,22.6353 56.6829,19.9686 57.5,17.5 Z"/></g>
<g><path style="opacity:1" fill="#0b4df9" d="M 35.5,37.5 C 36.5363,48.7579 38.3696,49.0913 41,38.5C 41.6667,39.1667 42.3333,39.8333 43,40.5C 44.0712,37.8875 44.9045,37.8875 45.5,40.5C 44.032,41.7791 43.3653,43.4458 43.5,45.5C 43.5674,46.9587 43.2341,48.2921 42.5,49.5C 42.5,49.8333 42.5,50.1667 42.5,50.5C 41.596,51.209 41.2627,52.209 41.5,53.5C 40.6236,53.3691 39.9569,53.7025 39.5,54.5C 33.9641,64.4029 29.6308,76.0696 26.5,89.5C 26.7373,90.791 26.404,91.791 25.5,92.5C 23.179,94.0897 22.179,96.4231 22.5,99.5C 22.5,99.8333 22.5,100.167 22.5,100.5C 21.2652,100.721 20.2652,101.388 19.5,102.5C 18.1667,105.833 16.8333,109.167 15.5,112.5C 14.1753,109.209 12.5087,106.209 10.5,103.5C 9.56552,102.432 9.23219,101.099 9.5,99.5C 9.69283,96.1889 8.69283,93.5223 6.5,91.5C 6.5,91.1667 6.5,90.8333 6.5,90.5C 6.98188,87.1694 5.98188,84.5027 3.5,82.5C 2.962,80.8828 2.62867,79.2161 2.5,77.5C 2.6545,74.284 1.6545,71.6174 -0.5,69.5C -0.5,68.1667 -0.5,66.8333 -0.5,65.5C 0.166667,65.5 0.833333,65.5 1.5,65.5C 3.5273,65.6621 5.5273,65.4955 7.5,65C 8.05596,64.6174 8.38929,64.1174 8.5,63.5C 11.1932,62.1534 13.8599,60.8201 16.5,59.5C 19.8574,58.9883 22.8574,57.655 25.5,55.5C 27.0737,51.2674 29.0737,47.2674 31.5,43.5C 32.3403,41.1475 33.6736,39.1475 35.5,37.5 Z"/></g>
<g><path style="opacity:1" fill="#3259e1" d="M 45.5,40.5 C 46.6408,43.6399 46.8075,46.9733 46,50.5C 44.4696,53.5608 42.9696,56.5608 41.5,59.5C 41.5172,57.4352 41.8505,55.4352 42.5,53.5C 42.8333,52.8333 43.1667,52.1667 43.5,51.5C 43.5,50.8333 43.5,50.1667 43.5,49.5C 44.8333,48.1667 44.8333,46.8333 43.5,45.5C 43.3653,43.4458 44.032,41.7791 45.5,40.5 Z"/></g>
<g><path style="opacity:0.451" fill="#a9d4ff" d="M 43.5,45.5 C 44.8333,46.8333 44.8333,48.1667 43.5,49.5C 43.1667,49.5 42.8333,49.5 42.5,49.5C 43.2341,48.2921 43.5674,46.9587 43.5,45.5 Z"/></g>
<g><path style="opacity:0.004" fill="#e2eeff" d="M 42.5,50.5 C 42.5,51.1667 42.8333,51.5 43.5,51.5C 43.1667,52.1667 42.8333,52.8333 42.5,53.5C 42.1667,53.5 41.8333,53.5 41.5,53.5C 41.2627,52.209 41.596,51.209 42.5,50.5 Z"/></g>
<g><path style="opacity:1" fill="#3f5ae1" d="M 31.5,43.5 C 29.0737,47.2674 27.0737,51.2674 25.5,55.5C 22.8574,57.655 19.8574,58.9883 16.5,59.5C 21.5279,54.1405 26.5279,48.8071 31.5,43.5 Z"/></g>
<g><path style="opacity:1" fill="#6981d6" d="M 8.5,63.5 C 8.38929,64.1174 8.05596,64.6174 7.5,65C 5.5273,65.4955 3.5273,65.6621 1.5,65.5C 3.65683,64.5933 5.99017,63.9267 8.5,63.5 Z"/></g>
<g><path style="opacity:1" fill="#5469dd" d="M 41.5,53.5 C 36.8722,65.7335 31.8722,77.7335 26.5,89.5C 29.6308,76.0696 33.9641,64.4029 39.5,54.5C 39.9569,53.7025 40.6236,53.3691 41.5,53.5 Z"/></g>
<g><path style="opacity:1" fill="#4a61d5" d="M 41.5,60.5 C 40.9645,64.819 40.4645,69.1523 40,73.5C 39.7645,75.1193 38.9311,76.1193 37.5,76.5C 38.2151,70.8971 39.5485,65.5638 41.5,60.5 Z"/></g>
<g><path style="opacity:0.902" fill="#667fd5" d="M -0.5,69.5 C 1.6545,71.6174 2.6545,74.284 2.5,77.5C 1.5,75.5 0.5,73.5 -0.5,71.5C -0.5,70.8333 -0.5,70.1667 -0.5,69.5 Z"/></g>
<g><path style="opacity:1" fill="#4c64da" d="M 55.5,60.5 C 55.8333,60.5 56.1667,60.5 56.5,60.5C 56.7682,69.9041 58.7682,78.9041 62.5,87.5C 61.5041,87.5858 60.6708,87.2524 60,86.5C 59.964,84.0588 59.1307,82.0588 57.5,80.5C 56.7131,76.1616 56.0464,71.8283 55.5,67.5C 55.5,65.1667 55.5,62.8333 55.5,60.5 Z"/></g>
<g><path style="opacity:1" fill="#6f82de" d="M 3.5,82.5 C 5.98188,84.5027 6.98188,87.1694 6.5,90.5C 5.12904,88.064 4.12904,85.3973 3.5,82.5 Z"/></g>
<g><path style="opacity:0.788" fill="#7585d8" d="M 62.5,87.5 C 63.9063,87.9731 64.573,88.9731 64.5,90.5C 63.0937,90.0269 62.427,89.0269 62.5,87.5 Z"/></g>
<g><path style="opacity:1" fill="#475ce1" d="M 64.5,90.5 C 66.3386,91.5077 67.6719,93.0077 68.5,95C 66.2833,96.7235 63.95,98.2235 61.5,99.5C 61.2148,97.712 61.5481,96.0453 62.5,94.5C 63.086,94.7093 63.586,95.0426 64,95.5C 64.4935,93.8659 64.6602,92.1992 64.5,90.5 Z"/></g>
<g><path style="opacity:1" fill="#5a70cf" d="M 6.5,91.5 C 8.69283,93.5223 9.69283,96.1889 9.5,99.5C 8.12904,97.064 7.12904,94.3973 6.5,91.5 Z"/></g>
<g><path style="opacity:1" fill="#5f70d7" d="M 25.5,92.5 C 25.0652,95.1573 24.0652,97.4907 22.5,99.5C 22.179,96.4231 23.179,94.0897 25.5,92.5 Z"/></g>
<g><path style="opacity:1" fill="#435edc" d="M 37.5,76.5 C 37.2984,84.6399 36.1318,92.6399 34,100.5C 33.3292,101.252 32.4959,101.586 31.5,101.5C 32.7539,92.876 34.7539,84.5426 37.5,76.5 Z"/></g>
<g><path style="opacity:1" fill="#5368d8" d="M 22.5,100.5 C 20.2902,106.632 17.7902,112.632 15,118.5C 13.1898,113.571 11.6898,108.571 10.5,103.5C 12.5087,106.209 14.1753,109.209 15.5,112.5C 16.8333,109.167 18.1667,105.833 19.5,102.5C 20.2652,101.388 21.2652,100.721 22.5,100.5 Z"/></g>
<g><path style="opacity:1" fill="#415de1" d="M 61.5,99.5 C 51.7949,106.526 41.7949,113.192 31.5,119.5C 30.5,119.5 29.5,119.5 28.5,119.5C 28.5,117.833 28.5,116.167 28.5,114.5C 28.4203,111.219 29.087,108.219 30.5,105.5C 30.2601,108.579 30.5934,111.579 31.5,114.5C 33.326,114.92 35.326,114.92 37.5,114.5C 37.3505,113.448 37.5172,112.448 38,111.5C 39.813,112.609 40.6463,111.942 40.5,109.5C 42.2624,109.643 43.9291,109.309 45.5,108.5C 46.731,107.349 46.731,106.183 45.5,105C 47.9005,104.814 50.2338,104.314 52.5,103.5C 54.3348,102.572 54.6682,101.406 53.5,100C 56.146,99.5026 58.8127,99.3359 61.5,99.5 Z"/></g>
<g><path style="opacity:1" fill="#5f6ece" d="M 28.5,114.5 C 28.5,116.167 28.5,117.833 28.5,119.5C 29.5,119.5 30.5,119.5 31.5,119.5C 30.2347,120.479 28.9014,121.479 27.5,122.5C 26.5497,119.646 26.883,116.98 28.5,114.5 Z"/></g>
</svg>
